HIERARCHY
ROOT Hips
{
	OFFSET -0.001795 -0.223333 0.028219
	CHANNELS 6 Xposition Yposition Zposition Zrotation Yrotation Xrotation 
	JOINT LeftUpLeg
	{
		OFFSET 0.069520 -0.091406 -0.006815
		CHANNELS 3 Zrotation Yrotation Xrotation
		JOINT LeftLeg
		{
			OFFSET 0.034277 -0.375199 -0.004496
			CHANNELS 3 Zrotation Yrotation Xrotation
			JOINT LeftFoot
			{
				OFFSET -0.013596 -0.397961 -0.043693
				CHANNELS 3 Zrotation Yrotation Xrotation
				JOINT LeftToe
				{
					OFFSET 0.026358 -0.055791 0.119288
					CHANNELS 3 Zrotation Yrotation Xrotation
					End Site
					{
						OFFSET 0.000000 0.000000 0.000000
					}
				}
			}
		}
	}
	JOINT RightUpLeg
	{
		OFFSET -0.067670 -0.090522 -0.004320
		CHANNELS 3 Zrotation Yrotation Xrotation
		JOINT RightLeg
		{
			OFFSET -0.038290 -0.382569 -0.008850
			CHANNELS 3 Zrotation Yrotation Xrotation
			JOINT RightFoot
			{
				OFFSET 0.015774 -0.398415 -0.042312
				CHANNELS 3 Zrotation Yrotation Xrotation
				JOINT RightToe
				{
					OFFSET -0.025372 -0.048144 0.123348
					CHANNELS 3 Zrotation Yrotation Xrotation
					End Site
					{
						OFFSET 0.000000 0.000000 0.000000
					}
				}
			}
		}
	}
	JOINT Spine
	{
		OFFSET -0.002533 0.108963 -0.026696
		CHANNELS 3 Zrotation Yrotation Xrotation
		JOINT Spine1
		{
			OFFSET 0.005487 0.135180 0.001092
			CHANNELS 3 Zrotation Yrotation Xrotation
			JOINT Spine2
			{
				OFFSET 0.001457 0.052922 0.025425
				CHANNELS 3 Zrotation Yrotation Xrotation
				JOINT Neck
				{
					OFFSET -0.002778 0.213870 -0.042857
					CHANNELS 3 Zrotation Yrotation Xrotation
					JOINT Head
					{
						OFFSET 0.005152 0.064970 0.051349
						CHANNELS 3 Zrotation Yrotation Xrotation
						End Site
						{
							OFFSET 0.000000 0.000000 0.000000
						}
					}
				}
				JOINT LeftShoulder
				{
					OFFSET 0.078845 0.121749 -0.034090
					CHANNELS 3 Zrotation Yrotation Xrotation
					JOINT LeftArm
					{
						OFFSET 0.090977 0.030469 -0.008868
						CHANNELS 3 Zrotation Yrotation Xrotation
						JOINT LeftForeArm
						{
							OFFSET 0.259612 -0.012772 -0.027456
							CHANNELS 3 Zrotation Yrotation Xrotation
							JOINT LeftHand
							{
								OFFSET 0.249234 0.008986 -0.001171
								CHANNELS 3 Zrotation Yrotation Xrotation
								End Site
								{
									OFFSET 0.000000 0.000000 0.000000
								}
							}
						}
					}
				}
				JOINT RightShoulder
				{
					OFFSET -0.081759 0.118833 -0.038615
					CHANNELS 3 Zrotation Yrotation Xrotation
					JOINT RightArm
					{
						OFFSET -0.096012 0.032551 -0.009143
						CHANNELS 3 Zrotation Yrotation Xrotation
						JOINT RightForeArm
						{
							OFFSET -0.253742 -0.013329 -0.021401
							CHANNELS 3 Zrotation Yrotation Xrotation
							JOINT RightHand
							{
								OFFSET -0.255298 0.007772 -0.005559
								CHANNELS 3 Zrotation Yrotation Xrotation
								End Site
								{
									OFFSET 0.000000 0.000000 0.000000
								}
							}
						}
					}
				}
			}
		}
	}
}
MOTION
Frames: 12
Frame Time: 0.050000
0.000000 0.946361 0.000000 -1.967806 3.548208 7.065459 5.671008 -0.334657 -3.007940 0.952699 0.249416 -8.548261 2.472029 9.047797 12.218359 0.000000 0.000000 0.000000 -3.773751 0.515513 -5.670112 -0.729300 -0.114017 -4.183560 -1.369219 -7.052426 11.893264 0.000000 0.000000 0.000000 2.258107 0.279183 -6.181060 0.333136 0.008634 -4.214752 -0.961332 0.238891 4.387720 4.336928 -1.573702 -13.342564 0.000000 0.000000 0.000000 -14.850758 0.351371 -2.031486 -58.552217 -6.078431 -3.974077 -9.748796 -17.467410 2.061707 0.000000 0.000000 0.000000 14.167476 -2.591819 -2.150891 63.145130 5.642457 -2.924791 5.506068 16.544071 1.293514 0.000000 0.000000 0.000000 
0.000055 0.945587 -0.000226 -2.183831 2.548315 7.547116 5.154655 -0.322426 -2.965745 2.331999 0.250838 -9.239960 2.859416 9.474783 11.876164 0.000000 0.000000 0.000000 -3.857343 0.566628 -6.288661 -0.277597 -0.118378 -3.515429 -0.529595 -5.375833 11.210906 0.000000 0.000000 0.000000 2.843262 0.316551 -6.570756 -0.520521 0.361105 -4.232447 -0.372685 0.719766 4.010592 4.367407 -1.612050 -13.293114 0.000000 0.000000 0.000000 -15.917749 1.050153 -2.486894 -58.056357 -6.420892 -3.709692 -9.761991 -18.209953 2.159580 0.000000 0.000000 0.000000 13.490886 -3.064634 -2.368836 63.830748 4.863227 -3.316306 6.048572 17.405811 1.433314 0.000000 0.000000 0.000000 
0.000183 0.945618 -0.000449 -1.895988 2.768779 7.332940 5.063392 -0.305201 -2.635893 2.226746 0.240062 -8.992931 2.417353 8.873029 12.198769 0.000000 0.000000 0.000000 -4.039092 0.539754 -5.998084 -0.588904 -0.092212 -3.473784 -0.972747 -6.147243 10.964923 0.000000 0.000000 0.000000 2.350729 0.273342 -6.005138 -0.051647 0.214274 -5.765990 -0.813407 0.311916 4.493617 3.870171 -1.308663 -13.384427 0.000000 0.000000 0.000000 -15.052125 0.556957 -2.081993 -58.637589 -6.444820 -3.801689 -9.483634 -17.868771 2.085014 0.000000 0.000000 0.000000 14.433363 -2.180679 -2.042847 62.507526 4.839434 -3.362560 5.917226 17.345482 1.408057 0.000000 0.000000 0.000000 
0.000399 0.945395 -0.000490 -2.203280 2.622160 7.568895 4.937371 -0.313765 -2.814707 2.776713 0.248466 -9.375106 2.508078 9.069447 12.471965 0.000000 0.000000 0.000000 -3.932042 0.600328 -6.842142 -0.393672 -0.090961 -3.096783 -0.968449 -6.200022 11.123290 0.000000 0.000000 0.000000 2.503864 0.287422 -6.208640 -0.519390 0.396641 -5.526050 0.013267 -0.453069 3.531090 3.407059 -1.228988 -12.169840 0.000000 0.000000 0.000000 -14.927069 1.272659 -2.242238 -59.531168 -6.954475 -3.487193 -8.666718 -17.398887 1.931056 0.000000 0.000000 0.000000 13.022489 -1.848290 -1.939891 62.723112 4.659891 -3.395501 6.922661 17.593102 1.528783 0.000000 0.000000 0.000000 
0.000543 0.945552 -0.000518 -2.045995 3.203579 7.390141 4.682873 -0.299753 -2.547320 2.878152 0.259102 -9.638398 2.017312 8.405355 12.645593 0.000000 0.000000 0.000000 -3.977339 0.577358 -6.601954 -0.625614 -0.080507 -3.292168 -1.343892 -6.897038 11.280790 0.000000 0.000000 0.000000 2.202128 0.256240 -5.796283 -0.012987 0.202505 -5.705699 -0.325512 -0.872894 3.251334 2.701226 -0.797154 -11.929981 0.000000 0.000000 0.000000 -15.148667 0.898764 -2.092883 -59.509596 -7.919710 -2.966169 -8.906605 -16.459129 1.855119 0.000000 0.000000 0.000000 12.832555 -1.805899 -1.907412 62.321100 4.804799 -3.269972 7.583701 17.471282 1.602701 0.000000 0.000000 0.000000 
0.000666 0.945648 -0.000464 -2.095292 3.150273 7.498754 4.522493 -0.301760 -2.632209 3.320583 0.244707 -9.521294 2.083958 8.432086 12.361153 0.000000 0.000000 0.000000 -3.849442 0.600367 -6.892985 -0.972512 -0.050511 -3.241198 -1.250179 -6.766143 11.459991 0.000000 0.000000 0.000000 2.174112 0.260721 -5.890713 0.018947 0.192570 -5.824879 -0.199585 -1.247890 3.215834 2.345711 -0.631928 -11.634128 0.000000 0.000000 0.000000 -15.327731 1.091179 -2.128400 -59.749036 -8.459224 -2.687919 -8.521912 -16.092455 1.770860 0.000000 0.000000 0.000000 12.427433 -1.409334 -1.746041 62.336984 5.093435 -3.133612 7.649427 17.410408 1.591757 0.000000 0.000000 0.000000 
0.000658 0.945752 -0.000422 -2.079018 3.152152 7.499657 4.313130 -0.295894 -2.588208 3.486607 0.243331 -9.551382 1.996381 8.408905 12.791853 0.000000 0.000000 0.000000 -3.747829 0.609004 -6.987959 -1.066093 -0.040432 -3.189231 -1.217162 -6.719032 11.526198 0.000000 0.000000 0.000000 2.015726 0.255411 -5.838573 0.126853 0.148295 -5.815464 -0.352294 -1.513659 3.140422 2.106972 -0.460177 -11.992520 0.000000 0.000000 0.000000 -15.331396 0.981977 -2.033705 -59.775753 -8.652467 -2.576446 -8.872210 -15.720451 1.780904 0.000000 0.000000 0.000000 12.422382 -1.263214 -1.714111 62.020533 5.166000 -3.083843 8.031867 17.414814 1.635957 0.000000 0.000000 0.000000 
0.000608 0.945982 -0.000407 -2.080446 3.113091 7.677237 4.068739 -0.300702 -2.727825 3.846803 0.231414 -9.463856 2.105946 8.563932 12.734362 0.000000 0.000000 0.000000 -3.622088 0.629261 -7.215016 -1.232708 -0.021143 -3.070040 -1.315319 -6.922349 11.556565 0.000000 0.000000 0.000000 2.053524 0.263706 -5.998995 0.066509 0.165464 -5.613906 -0.551595 -1.649052 2.849382 1.763130 -0.290925 -11.485142 0.000000 0.000000 0.000000 -15.607586 0.863947 -1.992831 -59.303409 -9.042458 -2.325366 -9.051554 -15.335280 1.759756 0.000000 0.000000 0.000000 12.528743 -1.076693 -1.663001 61.977902 5.267625 -3.001680 7.922995 17.257343 1.598747 0.000000 0.000000 0.000000 
0.000559 0.946111 -0.000365 -2.112286 2.950983 7.668445 3.966206 -0.300475 -2.770971 4.012400 0.216429 -9.279702 2.212964 8.649159 12.479154 0.000000 0.000000 0.000000 -3.515758 0.640003 -7.311892 -1.230566 -0.014622 -2.931609 -1.451591 -7.154647 11.334870 0.000000 0.000000 0.000000 2.013271 0.260587 -5.933536 0.074006 0.159283 -5.586983 -0.626493 -1.656900 2.710206 1.601310 -0.218943 -11.165808 0.000000 0.000000 0.000000 -15.521066 0.636166 -1.858290 -59.096585 -9.075567 -2.285362 -9.382142 -15.061962 1.770549 0.000000 0.000000 0.000000 12.705578 -0.991718 -1.657966 61.686761 5.228771 -2.997404 8.026784 17.128859 1.595251 0.000000 0.000000 0.000000 
0.000546 0.946225 -0.000280 -2.105287 2.717780 7.683678 3.800863 -0.294435 -2.730610 4.178329 0.207803 -9.202779 2.426824 8.978275 12.542452 0.000000 0.000000 0.000000 -3.467577 0.645268 -7.344301 -1.237121 -0.015948 -2.957563 -1.460497 -7.147020 11.105424 0.000000 0.000000 0.000000 2.099633 0.261662 -5.904340 -0.126943 0.237200 -5.541506 -0.657194 -1.589983 2.725044 1.150633 0.064746 -11.109427 0.000000 0.000000 0.000000 -15.715181 0.557250 -1.829130 -58.599111 -9.216822 -2.198430 -9.681522 -14.862547 1.785732 0.000000 0.000000 0.000000 12.942646 -0.761877 -1.584353 61.378665 5.622244 -2.781249 8.131012 16.893462 1.582182 0.000000 0.000000 0.000000 
0.000563 0.946055 -0.000165 -2.093684 2.537946 7.592645 3.823747 -0.281832 -2.533825 4.142989 0.206144 -9.168275 2.557489 9.103033 12.293610 0.000000 0.000000 0.000000 -3.450823 0.641910 -7.280368 -1.245532 -0.015864 -2.961442 -1.522740 -7.299965 11.134896 0.000000 0.000000 0.000000 2.118326 0.266475 -5.949350 -0.161391 0.239649 -5.244549 -0.689085 -1.582653 2.558879 0.944069 0.167596 -10.770192 0.000000 0.000000 0.000000 -15.864536 0.582159 -1.846927 -58.321087 -9.052189 -2.254508 -9.959876 -14.952157 1.832754 0.000000 0.000000 0.000000 13.007014 -0.515655 -1.491443 61.229808 6.025478 -2.551748 8.195628 16.644190 1.560927 0.000000 0.000000 0.000000 
0.000564 0.945868 0.000002 -2.084174 2.251413 7.399025 3.912292 -0.263935 -2.250151 4.144799 0.206378 -9.177831 2.510052 9.023582 12.406869 0.000000 0.000000 0.000000 -3.511519 0.627233 -7.082964 -1.213923 -0.015698 -2.896578 -1.415017 -7.095631 11.010239 0.000000 0.000000 0.000000 2.105642 0.266338 -5.895663 -0.218162 0.250380 -4.923599 -0.535736 -1.434810 2.409769 0.889411 0.208628 -10.866980 0.000000 0.000000 0.000000 -15.962001 0.685094 -1.904228 -58.090150 -8.768830 -2.375494 -10.488709 -15.271346 1.943517 0.000000 0.000000 0.000000 13.196610 -0.409185 -1.471742 61.014996 6.482478 -2.295084 7.937806 16.415193 1.502007 0.000000 0.000000 0.000000 
